# xmcd
#
# Track frame offsets:
#	150
#	18685
#	32173
#	49707
#	63254
#	80255
#	103253
#	120315
#	139244
#	157595
#	176130
#	189618
#	207152
#	220699
#	237700
#	260698
#	277760
#	296689
#
# Disc length: 4200 seconds
#
# Revision: 1
# Processed by: cddbd v1.5.2PL0 Copyright (c) Steve Scherf et al.
# Submitted via: audiograbber 1.83.01
#
DISCID=06106612
DTITLE=Various Artist - 20903-7
DYEAR=2009
DGENRE=Country
TTITLE0=Darius Rucker - Alright
TTITLE1=Tracy Lawrence - Up To Him
TTITLE2=Bucky Covington - I Want My Life Back
TTITLE3=Joey and Rory - Play The Song
TTITLE4=Emily West - That Kind Of Happy
TTITLE5=Trace Adkins - Till the Last Shot's Fired
TTITLE6=Pat Green - Country Star
TTITLE7=Megan Munroe - Moonshine
TTITLE8=Hank Williams, Jr - Red White and Pink Slip Blues
TTITLE9=Darius Rucker - Alright-vocal
TTITLE10=Tracy Lawrence - Up To Him-vocal
TTITLE11=Bucky Covington - I Want My Life Back-vocal
TTITLE12=Joey and Rory - Play The Song-vocal
TTITLE13=Emily West - That Kind Of Happy-vocal
TTITLE14=Trace Adkins - Till The Last Shot's Fired-vocal
TTITLE15=Pat Green - Country Star-vocal
TTITLE16=Megan Munroe - Moonshine-vocal
TTITLE17=Hank Williams Jr - Red White and Pink Slip Blues-vocal
EXTD=
EXTT0=
EXTT1=
EXTT2=
EXTT3=
EXTT4=
EXTT5=
EXTT6=
EXTT7=
EXTT8=
EXTT9=
EXTT10=
EXTT11=
EXTT12=
EXTT13=
EXTT14=
EXTT15=
EXTT16=
EXTT17=
PLAYORDER=
